<svg width="190" height="26" viewBox="0 0 190 26" fill="none" xmlns="http://www.w3.org/2000/svg">
<path d="M12.7391 0C16.1261 0 18.9317 1.24513 21.333 3.3034C21.611 3.55751 21.6363 3.98949 21.3836 4.26901L21.3583 4.29442C20.8275 4.85346 20.2966 5.38708 19.7659 5.97154C19.4879 6.30187 19.2098 6.25106 18.856 5.94612C17.1878 4.49771 14.9888 3.5321 12.8402 3.5321C7.81031 3.5321 3.96835 7.80111 3.96835 12.7816C3.96835 17.7621 7.83558 22.0058 12.8655 22.0058C14.7107 22.0058 16.5053 21.5991 18.1735 20.786V16.7965H14.6854C14.3315 16.822 14.0282 16.5424 14.0029 16.1867V16.1612V14.103C13.9777 13.7472 14.281 13.4423 14.6348 13.4169C14.6601 13.4169 14.6601 13.4169 14.6854 13.4169H21.1308C21.4847 13.4423 21.7627 13.7218 21.7627 14.103C21.7627 16.949 21.788 19.8712 21.788 22.7172C21.7627 22.946 21.6616 23.1492 21.5099 23.2762C18.8306 24.801 15.8229 25.6141 12.7391 25.6141C5.71239 25.6141 0 19.8712 0 12.807C0 5.74284 5.71239 0 12.7391 0Z" fill="white"/>
<path d="M36.1954 1.6861C36.1954 1.30493 36.4987 1 36.8779 1H51.0324C51.4116 1 51.7149 1.30493 51.7149 1.6861V3.66813C51.7149 4.0493 51.4116 4.35422 51.0324 4.35422H39.8604V11.6217H49.2884C49.6423 11.6217 49.9456 11.9267 49.9709 12.3078V14.2899C49.9709 14.671 49.6675 14.976 49.2884 14.976H39.8352V22.6246H51.0072C51.3863 22.6246 51.6643 22.9295 51.6896 23.2852V25.2419C51.6896 25.623 51.3863 25.928 51.0072 25.928H36.8526C36.4735 25.928 36.1702 25.623 36.1702 25.2419L36.1954 1.6861Z" fill="white"/>
<path d="M70.7476 13.9357L62.4571 2.04344C62.2549 1.73852 62.3307 1.33194 62.634 1.12866C62.7604 1.05243 62.8868 1.0016 63.0385 1.0016H65.6672C65.8946 1.0016 66.0968 1.12866 66.2232 1.33194L72.618 10.4036L79.0129 1.33194C79.1393 1.15407 79.3415 1.02701 79.569 1.0016H82.2229C82.5768 0.976192 82.8802 1.25571 82.9054 1.63687C82.9054 1.78933 82.8802 1.91639 82.7791 2.04344L74.3873 13.8849V25.2435C74.3873 25.5992 74.084 25.9041 73.705 25.9296H71.3795C71.0004 25.9296 70.6971 25.6247 70.6971 25.2435L70.7476 13.9357Z" fill="white"/>
<path d="M93.4456 21.65C93.7744 21.1926 94.0522 20.6589 94.3555 20.2016C94.6588 19.7442 95.1643 19.5918 95.5687 19.922C95.7709 20.0999 98.5014 22.3869 101.231 22.3869C103.683 22.3869 105.225 20.8877 105.225 19.0835C105.225 16.949 103.38 15.6022 99.8913 14.1284C96.2764 12.6038 93.4456 10.7234 93.4456 6.58139C93.4456 3.81161 95.5687 0 101.18 0C103.531 0.050821 105.806 0.762322 107.727 2.1091C108.106 2.3632 108.232 2.87141 107.98 3.27799C107.98 3.3034 107.954 3.3034 107.954 3.32881C107.677 3.7608 107.348 4.2436 107.07 4.67559C106.791 5.10757 106.337 5.36168 105.831 5.03133C105.578 4.87887 103.101 3.25258 101.054 3.25258C98.0715 3.25258 97.0605 5.13298 97.0605 6.45434C97.0605 8.48721 98.6271 9.7323 101.56 10.9267C105.654 12.6038 109.168 14.5604 109.168 18.9057C109.168 22.6156 105.882 25.6395 101.281 25.6395C98.5014 25.6649 95.7964 24.6738 93.6733 22.8188C93.3445 22.4886 93.0922 22.2344 93.4456 21.65Z" fill="white"/>
<path d="M122.892 1.6861C122.892 1.33034 123.195 1.02541 123.575 1H125.9C126.254 1 126.557 1.30493 126.583 1.6861V25.2419C126.583 25.5976 126.279 25.9026 125.9 25.928H123.575C123.221 25.928 122.918 25.623 122.892 25.2419V1.6861Z" fill="white"/>
<path d="M142.279 1.6861C142.279 1.30493 142.583 1 142.961 1H157.116C157.495 1 157.798 1.30493 157.798 1.6861V3.66813C157.798 4.0493 157.495 4.35422 157.116 4.35422H145.944V11.6217H155.397C155.752 11.6217 156.055 11.9267 156.08 12.3078V14.2899C156.08 14.671 155.776 14.976 155.397 14.976H145.944V22.6246H157.116C157.495 22.6246 157.774 22.9295 157.798 23.2852V25.2419C157.798 25.623 157.495 25.928 157.116 25.928H142.961C142.583 25.928 142.279 25.623 142.279 25.2419V1.6861Z" fill="white"/>
<path d="M171.978 1.6861C171.978 1.30493 172.282 1 172.661 1H182.291C186.537 1 190 4.37963 190 8.62323C190 11.9012 187.851 14.5948 184.768 15.8399L189.621 24.8861C189.823 25.191 189.722 25.623 189.419 25.8263C189.292 25.9026 189.167 25.928 189.015 25.928H186.259C186.032 25.928 185.805 25.801 185.704 25.5976L180.977 16.1449H175.619V25.2165C175.619 25.5722 175.315 25.8771 174.936 25.9026H172.636C172.257 25.9026 171.954 25.5976 171.954 25.2165L171.978 1.6861ZM181.988 13.0955C184.389 13.0447 186.31 11.088 186.31 8.67405C186.31 6.36168 184.288 4.43046 181.988 4.43046H175.694V13.0701H181.988V13.0955Z" fill="white"/>
</svg>
