<svg width="21" height="12" viewBox="0 0 21 12" fill="none" xmlns="http://www.w3.org/2000/svg">
<path d="M16.5912 2.28844C16.9058 2.28844 17.1633 2.54589 17.1633 2.86055V8.58165C17.1633 8.89631 16.9058 9.15376 16.5912 9.15376H2.86055C2.54589 9.15376 2.28844 8.89631 2.28844 8.58165V2.86055C2.28844 2.54589 2.54589 2.28844 2.86055 2.28844H16.5912ZM2.86055 0C1.2801 0 0 1.2801 0 2.86055V8.58165C0 10.1621 1.2801 11.4422 2.86055 11.4422H16.5912C18.1716 11.4422 19.4517 10.1621 19.4517 8.58165V8.00954C20.0846 8.00954 20.596 7.49821 20.596 6.86532V4.57688C20.596 3.94398 20.0846 3.43266 19.4517 3.43266V2.86055C19.4517 1.2801 18.1716 0 16.5912 0H2.86055ZM16.0191 3.43266H3.43266V8.00954H16.0191V3.43266Z" fill="#F5F5F5"/>
</svg>
