<svg width="23" height="18" viewBox="0 0 23 18" fill="none" xmlns="http://www.w3.org/2000/svg">
<path d="M11.498 0C8.2719 0 5.68861 1.46932 3.80805 3.21812C1.93946 4.95096 0.68974 7.02717 0.0988195 8.45257C-0.0329399 8.76799 -0.0329399 9.11935 0.0988195 9.43477C0.68974 10.8602 1.93946 12.9364 3.80805 14.6692C5.68861 16.418 8.2719 17.8873 11.498 17.8873C14.7241 17.8873 17.3074 16.418 19.188 14.6692C21.0566 12.9324 22.3063 10.8602 22.9012 9.43477C23.0329 9.11935 23.0329 8.76799 22.9012 8.45257C22.3063 7.02717 21.0566 4.95096 19.188 3.21812C17.3074 1.46932 14.7241 0 11.498 0ZM5.7485 8.94367C5.7485 7.41881 6.35425 5.9564 7.43249 4.87816C8.51073 3.79992 9.97314 3.19417 11.498 3.19417C13.0229 3.19417 14.4853 3.79992 15.5635 4.87816C16.6418 5.9564 17.2475 7.41881 17.2475 8.94367C17.2475 10.4685 16.6418 11.9309 15.5635 13.0092C14.4853 14.0874 13.0229 14.6932 11.498 14.6932C9.97314 14.6932 8.51073 14.0874 7.43249 13.0092C6.35425 11.9309 5.7485 10.4685 5.7485 8.94367ZM11.498 6.38834C11.498 7.79776 10.3521 8.94367 8.94267 8.94367C8.65919 8.94367 8.38768 8.89576 8.13215 8.81191C7.91255 8.74004 7.65702 8.87579 7.665 9.10737C7.67698 9.38287 7.71691 9.65836 7.79277 9.93386C8.33977 11.9781 10.4439 13.1919 12.4882 12.6449C14.5325 12.0979 15.7462 9.99375 15.1992 7.94948C14.7561 6.29251 13.2907 5.17854 11.6617 5.11067C11.4301 5.10268 11.2944 5.35422 11.3662 5.57782C11.4501 5.83335 11.498 6.10485 11.498 6.38834Z" fill="#F5F5F5"/>
</svg>
