<svg width="13" height="18" viewBox="0 0 13 18" fill="none" xmlns="http://www.w3.org/2000/svg">
<path d="M9 13.5C9.3375 12.3785 10.0371 11.4223 10.7297 10.4695C10.9125 10.2199 11.0953 9.97031 11.2711 9.71719C11.9672 8.71523 12.375 7.50234 12.375 6.19102C12.375 2.77031 9.60469 0 6.1875 0C2.77031 0 0 2.77031 0 6.1875C0 7.49883 0.407813 8.71523 1.10391 9.71367C1.27969 9.9668 1.4625 10.2164 1.64531 10.466C2.34141 11.4188 3.04102 12.3785 3.375 13.4965H9V13.5ZM6.1875 18C7.74141 18 9 16.7414 9 15.1875V14.625H3.375V15.1875C3.375 16.7414 4.63359 18 6.1875 18ZM3.375 6.1875C3.375 6.49687 3.12188 6.75 2.8125 6.75C2.50312 6.75 2.25 6.49687 2.25 6.1875C2.25 4.01133 4.01133 2.25 6.1875 2.25C6.49687 2.25 6.75 2.50312 6.75 2.8125C6.75 3.12188 6.49687 3.375 6.1875 3.375C4.63359 3.375 3.375 4.63359 3.375 6.1875Z" fill="#F5F5F5"/>
</svg>
