<svg width="14" height="18" viewBox="0 0 14 18" fill="none" xmlns="http://www.w3.org/2000/svg">
<path d="M6.75 18C3.02344 18 0 14.9766 0 11.25C0 8.04375 4.57734 2.02852 5.85703 0.411328C6.06797 0.147656 6.38086 0 6.71836 0H6.78164C7.11914 0 7.43203 0.147656 7.64297 0.411328C8.92266 2.02852 13.5 8.04375 13.5 11.25C13.5 14.9766 10.4766 18 6.75 18ZM3.375 11.8125C3.375 11.5031 3.12188 11.25 2.8125 11.25C2.50312 11.25 2.25 11.5031 2.25 11.8125C2.25 13.9887 4.01133 15.75 6.1875 15.75C6.49687 15.75 6.75 15.4969 6.75 15.1875C6.75 14.8781 6.49687 14.625 6.1875 14.625C4.63359 14.625 3.375 13.3664 3.375 11.8125Z" fill="#F5F5F5"/>
</svg>
