<svg width="11" height="16" viewBox="0 0 11 16" fill="none" xmlns="http://www.w3.org/2000/svg">
<path d="M2.8125 4.62498C2.8125 3.38396 3.82148 2.37498 5.0625 2.37498H6.1875C7.42852 2.37498 8.4375 3.38396 8.4375 4.62498V4.75154C8.4375 5.51794 8.04727 6.23162 7.40391 6.64294L5.92031 7.59568C5.03437 8.16521 4.5 9.14607 4.5 10.1972V10.2465C4.5 10.8687 5.00273 11.3715 5.625 11.3715C6.24727 11.3715 6.75 10.8687 6.75 10.2465V10.1972C6.75 9.90896 6.89766 9.64177 7.13672 9.48708L8.62031 8.53435C9.90703 7.70466 10.6875 6.28084 10.6875 4.74802V4.62146C10.6875 2.13591 8.67305 0.12146 6.1875 0.12146H5.0625C2.57695 0.124976 0.5625 2.13943 0.5625 4.62498C0.5625 5.24724 1.06523 5.74998 1.6875 5.74998C2.30977 5.74998 2.8125 5.24724 2.8125 4.62498ZM5.625 15.875C5.99796 15.875 6.35565 15.7268 6.61937 15.4631C6.88309 15.1994 7.03125 14.8417 7.03125 14.4687C7.03125 14.0958 6.88309 13.7381 6.61937 13.4744C6.35565 13.2106 5.99796 13.0625 5.625 13.0625C5.25204 13.0625 4.89435 13.2106 4.63063 13.4744C4.36691 13.7381 4.21875 14.0958 4.21875 14.4687C4.21875 14.8417 4.36691 15.1994 4.63063 15.4631C4.89435 15.7268 5.25204 15.875 5.625 15.875Z" fill="#626262"/>
</svg>
