<svg width="19" height="18" viewBox="0 0 19 18" fill="none" xmlns="http://www.w3.org/2000/svg">
<path d="M10.2911 0.632742C10.1048 0.246066 9.71105 0 9.27868 0C8.84631 0 8.45611 0.246066 8.26629 0.632742L6.006 5.28339L0.958127 6.02862C0.536299 6.0919 0.184776 6.38718 0.0547127 6.79143C-0.0753509 7.19568 0.0301059 7.64211 0.332416 7.94091L3.99529 11.5651L3.13054 16.6868C3.06024 17.1086 3.236 17.5375 3.584 17.7871C3.93201 18.0367 4.39251 18.0683 4.77215 17.8679L9.2822 15.46L13.7922 17.8679C14.1719 18.0683 14.6324 18.0402 14.9804 17.7871C15.3284 17.534 15.5042 17.1086 15.4338 16.6868L14.5656 11.5651L18.2285 7.94091C18.5308 7.64211 18.6397 7.19568 18.5062 6.79143C18.3726 6.38718 18.0246 6.0919 17.6027 6.02862L12.5514 5.28339L10.2911 0.632742Z" fill="#F5F5F5"/>
</svg>
